<svg width="247" height="40" xmlns="http://www.w3.org/2000/svg" xmlns:xlink="http://www.w3.org/1999/xlink"><defs><path d="M85.796 20.103v-.03c0-2.986 2.234-5.431 5.436-5.431 1.966 0 3.143.66 4.111 1.62l-1.46 1.695c-.804-.735-1.623-1.185-2.666-1.185-1.757 0-3.023 1.47-3.023 3.27v.03c0 1.801 1.236 3.302 3.023 3.302 1.192 0 1.922-.48 2.74-1.23l1.46 1.485c-1.072 1.155-2.263 1.875-4.274 1.875-3.069 0-5.347-2.385-5.347-5.401zm14.847 1.08l-4.006-6.362h2.68l2.488 4.216 2.532-4.216h2.607l-4.007 6.317v4.186h-2.294v-4.141zm7.105-1.08v-.03c0-2.986 2.235-5.431 5.437-5.431 1.966 0 3.143.66 4.11 1.62l-1.46 1.695c-.803-.735-1.622-1.185-2.665-1.185-1.758 0-3.024 1.47-3.024 3.27v.03c0 1.801 1.237 3.302 3.024 3.302 1.192 0 1.921-.48 2.74-1.23l1.46 1.485c-1.072 1.155-2.263 1.875-4.275 1.875-3.068 0-5.347-2.385-5.347-5.401zm12.343-5.282h2.294v8.403h5.198v2.1h-7.492V14.821zm9.962 0h7.864v2.056h-5.586v2.13h4.916v2.056h-4.916v2.206h5.66v2.055h-7.938V14.821zm32.582 5.282v-.03c0-2.986 2.235-5.431 5.437-5.431 1.966 0 3.142.66 4.11 1.62l-1.46 1.695c-.803-.735-1.622-1.185-2.665-1.185-1.758 0-3.024 1.47-3.024 3.27v.03c0 1.801 1.237 3.302 3.024 3.302 1.192 0 1.921-.48 2.74-1.23l1.46 1.485c-1.072 1.155-2.264 1.875-4.275 1.875-3.068 0-5.347-2.385-5.347-5.401zm15.32-5.357h2.116l4.468 10.578h-2.398l-.953-2.355h-4.409l-.953 2.355h-2.339l4.469-10.578zm8.63.075h4.767c1.326 0 2.354.375 3.038 1.066.582.585.894 1.41.894 2.4v.03c0 1.696-.908 2.761-2.234 3.256l2.547 3.751h-2.68l-2.235-3.361h-1.802v3.361h-2.294V14.821zm11.656 0h4.767c1.326 0 2.353.375 3.038 1.066.581.585.894 1.41.894 2.4v.03c0 1.696-.909 2.761-2.234 3.256l2.547 3.751h-2.681l-2.234-3.361h-1.803v3.361h-2.294V14.821zm11.841 10.503V14.821h2.294v10.503h-2.294zm8.85-10.578h2.114l4.468 10.578h-2.398l-.953-2.355h-4.408l-.954 2.355h-2.338l4.468-10.578zm7.412 5.357v-.03c0-2.986 2.309-5.431 5.467-5.431 1.876 0 3.008.51 4.095 1.44l-1.444 1.755c-.804-.675-1.52-1.065-2.726-1.065-1.668 0-2.994 1.485-2.994 3.27v.03c0 1.922 1.31 3.332 3.158 3.332.834 0 1.578-.21 2.16-.63v-1.501h-2.309v-1.996h4.528v4.562c-1.073.915-2.547 1.665-4.454 1.665-3.247 0-5.48-2.295-5.48-5.401zm12.717-5.282h7.864v2.056h-5.585v2.13h4.915v2.056h-4.915v2.206H247v2.055h-7.94V14.821zm-84.604 7.137c-.061.11-.113.225-.157.343.372.835 1.278 1.08 2.118 1.058v1.958h-.137c-1.506 0-2.582-.406-3.368-1.274-1.426 1.798-4.659 1.859-6.454.61-.842-.585-1.307-1.516-1.34-2.54-.044-1.354.865-2.494 2.045-3.052a2.216 2.216 0 0 1-.359-3.24c.764-.887 2.057-1.216 3.183-1.176 1.119.04 2.405.488 2.99 1.52.614 1.08.188 2.588-.933 3.142.464.22.882.607 1.208 1.123.766-1.17 1.813-2.128 3.165-2.516v2.552a2.88 2.88 0 0 0-1.96 1.492zM71.741 27.61a.589.589 0 0 1 .815-.225l2.394 1.387a.599.599 0 0 1 .23.8C71.81 35.784 65.27 40 57.75 40c-10.858 0-19.68-8.78-19.852-19.676C37.723 9.235 46.699.022 57.709 0c7.517-.015 14.06 4.181 17.442 10.376a.6.6 0 0 1-.228.8l-2.391 1.394a.59.59 0 0 1-.816-.225C69.02 7.364 63.778 3.982 57.75 3.982c-9.19 0-16.557 7.851-15.855 17.257.59 7.912 6.983 14.258 14.844 14.747 6.468.403 12.165-3.093 15.002-8.375zm-37.895 0a.589.589 0 0 1 .814-.225l2.394 1.387a.599.599 0 0 1 .23.8C33.915 35.784 27.375 40 19.854 40 8.997 40 .174 31.22.003 20.324-.173 9.235 8.803.022 19.813 0c7.518-.015 14.06 4.181 17.443 10.376a.6.6 0 0 1-.228.8l-2.392 1.394a.59.59 0 0 1-.815-.225c-2.696-4.981-7.938-8.363-13.967-8.363-9.189 0-16.556 7.851-15.855 17.257.591 7.912 6.984 14.258 14.845 14.747 6.468.403 12.164-3.093 15.002-8.375zM19.854 6.256c7.536 0 13.644 6.153 13.644 13.744 0 7.59-6.108 13.744-13.644 13.744C12.319 33.744 6.21 27.59 6.21 20S12.32 6.256 19.854 6.256zm37.896 0c7.535 0 13.644 6.153 13.644 13.744 0 7.59-6.11 13.744-13.644 13.744-7.536 0-13.644-6.154-13.644-13.744S50.214 6.256 57.75 6.256zm122.619 14.672l-1.386-3.406-1.384 3.406h2.77zm10.834-1.005c1.118 0 1.758-.6 1.758-1.486v-.03c0-.99-.685-1.5-1.802-1.5h-2.279v3.016h2.323zm11.656 0c1.117 0 1.758-.6 1.758-1.486v-.03c0-.99-.686-1.5-1.803-1.5h-2.279v3.016h2.324zm18.485 1.005l-1.385-3.406-1.385 3.406h2.77zm-72 2.709c.926 0 2.57-.302 2.312-1.557-.218-1.06-1.262-1.811-2.313-1.816-.95-.004-2.027.583-2.031 1.655-.005 1.088 1.056 1.718 2.031 1.718zm.425-7.296c-.661 0-1.432.298-1.43 1.077.004.77.772 1.075 1.43 1.076.656 0 1.449-.3 1.45-1.076 0-.784-.787-1.077-1.45-1.077zM25.371 22.506l4.35 2.53a11.134 11.134 0 0 0 1.18-4.447h-5.02a.882.882 0 0 0-.862.667c-.02.08-.04.16-.063.24a.89.89 0 0 0 .415 1.01zm.525 6.827a11.162 11.162 0 0 0 3.23-3.259l-4.353-2.531a.877.877 0 0 0-1.077.144c-.056.06-.114.118-.173.175a.892.892 0 0 0-.142 1.084l2.515 4.387zm-5.447 1.794a10.938 10.938 0 0 0 4.417-1.194l-2.51-4.38a.88.88 0 0 0-1.006-.418 5.05 5.05 0 0 1-.241.066.885.885 0 0 0-.66.866v5.06zM15.73 20c0 2.295 1.847 4.156 4.125 4.156 2.279 0 4.125-1.86 4.125-4.156 0-2.295-1.846-4.156-4.125-4.156-2.278 0-4.125 1.861-4.125 4.156zm3.53 11.127v-5.06a.885.885 0 0 0-.659-.866 5.445 5.445 0 0 1-.242-.066.88.88 0 0 0-1.005.417l-2.51 4.381a10.946 10.946 0 0 0 4.417 1.194zm-8.677-5.053a11.16 11.16 0 0 0 3.23 3.259l2.515-4.387a.892.892 0 0 0-.142-1.084 5.443 5.443 0 0 1-.173-.175.877.877 0 0 0-1.077-.144l-4.353 2.531zm-.595-1.038l4.35-2.53a.89.89 0 0 0 .415-1.01 5.382 5.382 0 0 1-.063-.24.882.882 0 0 0-.861-.667h-5.02c.082 1.595.5 3.1 1.18 4.447zm.008-10.088a11.147 11.147 0 0 0-1.186 4.443h5.024a.88.88 0 0 0 .86-.663 5.9 5.9 0 0 1 .064-.237.89.89 0 0 0-.414-1.014l-4.348-2.53zm3.826-4.286a11.154 11.154 0 0 0-3.23 3.249l4.356 2.533a.876.876 0 0 0 1.076-.143c.055-.057.11-.114.168-.169a.893.893 0 0 0 .144-1.085l-2.514-4.385zm5.439-1.789a10.928 10.928 0 0 0-4.409 1.19l2.512 4.381a.879.879 0 0 0 1.004.418c.077-.023.154-.044.232-.063a.886.886 0 0 0 .66-.867V8.873zm1.19 0v5.059c0 .407.267.771.66.867.078.02.155.04.231.063a.879.879 0 0 0 1.005-.418l2.51-4.382a10.925 10.925 0 0 0-4.407-1.189zm8.667 5.038a11.156 11.156 0 0 0-3.23-3.25l-2.513 4.386a.893.893 0 0 0 .143 1.085c.058.055.113.112.168.17a.876.876 0 0 0 1.076.142l4.356-2.533zm.596 1.037l-4.348 2.529a.89.89 0 0 0-.414 1.014c.023.078.044.157.064.237a.881.881 0 0 0 .86.663H30.9a11.14 11.14 0 0 0-1.186-4.443zm-9.859 2.643a2.39 2.39 0 0 1 2.381 2.399 2.39 2.39 0 0 1-2.38 2.399 2.39 2.39 0 0 1-2.382-2.4 2.39 2.39 0 0 1 2.381-2.398zm38.608 13.53c5.482-.346 9.94-4.8 10.322-10.32.452-6.517-4.662-11.944-11.034-11.944-4.456 0-8.293 2.654-10.046 6.477l1.984 1.156c1.352-3.137 4.456-5.338 8.062-5.338 3.604 0 6.707 2.2 8.06 5.335l-1.037.604c-1.136-2.782-3.852-4.74-7.023-4.74-3.173 0-5.89 1.96-7.025 4.743l2.003 1.167c.719-2.1 2.696-3.615 5.022-3.615 2.324 0 4.302 1.512 5.022 3.61l-1.055.615c-.488-1.745-2.078-3.027-3.967-3.027-1.891 0-3.481 1.283-3.968 3.031A4.17 4.17 0 0 0 53.625 20c0 .382.056.75.152 1.102.48 1.76 2.075 3.054 3.974 3.054 1.897 0 3.491-1.292 3.973-3.05l1.057.612c-.669 1.972-2.462 3.44-4.58 3.617-2.527.211-4.723-1.373-5.48-3.62l-2.006 1.163c1.128 2.798 3.853 4.772 7.036 4.772 3.182 0 5.905-1.973 7.035-4.769l.519.3.519.302c-1.345 3.151-4.457 5.365-8.073 5.365-3.618 0-6.73-2.215-8.075-5.368l-1.986 1.15c1.837 4.045 6.004 6.791 10.773 6.49zM55.368 19.99a2.39 2.39 0 0 1 2.382-2.399 2.39 2.39 0 0 1 2.38 2.399 2.39 2.39 0 0 1-2.38 2.399 2.39 2.39 0 0 1-2.382-2.4z" id="a"/></defs><use fill="#00609D" xlink:href="#a" fill-rule="evenodd"/></svg>