<svg xmlns="http://www.w3.org/2000/svg" xmlns:xlink="http://www.w3.org/1999/xlink" width="31" height="27" viewBox="0 0 31 27"><defs><path id="797na" d="M110.42 238.628a.834.834 0 0 1 0 1.667h-1.946v1.943a.834.834 0 0 1-1.666 0v-1.943h-1.943a.834.834 0 0 1 0-1.667h1.943v-1.945a.834.834 0 0 1 1.666 0v1.945h1.946m-2.779 6.638a5.81 5.81 0 0 0 5.805-5.804 5.812 5.812 0 0 0-5.805-5.806 5.812 5.812 0 0 0-5.803 5.806 5.81 5.81 0 0 0 5.803 5.804m0-13.277c4.12 0 7.472 3.353 7.472 7.473 0 4.119-3.352 7.47-7.472 7.47-4.12 0-7.47-3.351-7.47-7.47 0-4.12 3.35-7.473 7.47-7.473m-13 3.481a.143.143 0 0 0-.101-.135l-2.057-.59-.177.133v.974c0 .076.064.14.139.14h2.058a.14.14 0 0 0 .138-.14zm.359-1.737c.77.22 1.308.935 1.308 1.737v.382c0 .996-.808 1.806-1.805 1.806h-2.058c-.997 0-1.805-.81-1.805-1.806v-.974c0-.571.261-1.096.718-1.441a1.77 1.77 0 0 1 1.583-.294zm3.378 6.424a.834.834 0 0 1 0 1.666h-6.86v.942c0 1.2-.975 2.175-2.175 2.175h-1.446a2.176 2.176 0 0 1-2.174-2.175v-7.025c0-1.113.21-2.203.622-3.24l.203-.507h-.026a2.357 2.357 0 0 1-2.355-2.355v-.708c0-.72.321-1.388.885-1.838a2.329 2.329 0 0 1 1.99-.457l1.51.342.535-1.34a8.12 8.12 0 0 1 7.581-5.137h5.474a8.125 8.125 0 0 1 7.581 5.137l.534 1.34 1.51-.342a2.322 2.322 0 0 1 1.991.457c.56.45.884 1.118.884 1.838v.708a2.358 2.358 0 0 1-2.354 2.355h-1.26a.833.833 0 1 1 0-1.666h1.26a.688.688 0 0 0 .687-.689v-.708a.69.69 0 0 0-.84-.672l-2.203.5a.821.821 0 0 1-.959-.503l-.798-2a6.466 6.466 0 0 0-6.033-4.088h-5.474a6.46 6.46 0 0 0-6.033 4.088l-.802 2a.818.818 0 0 1-.956.503l-2.204-.5a.689.689 0 0 0-.84.672v.708c0 .38.309.689.689.689h1.258c.277 0 .535.136.69.365.153.23.185.52.082.776l-.659 1.649a7.08 7.08 0 0 0-.503 2.623v7.025c0 .28.228.508.507.508h1.446a.51.51 0 0 0 .509-.508v-1.775c0-.46.371-.833.833-.833h7.693"/></defs><g><g transform="translate(-84 -220)"><use fill="#314959" xlink:href="#797na"/></g></g></svg>