<svg xmlns="http://www.w3.org/2000/svg" xmlns:xlink="http://www.w3.org/1999/xlink" width="24" height="24" viewBox="0 0 24 24"><defs><path id="tsnha" d="M298 39a9 9 0 1 1 18 0 9 9 0 0 1-18 0z"/><path id="tsnhb" d="M307.003 38.513l3.747-3.748a.7.7 0 1 1 .99.99l-3.747 3.748 3.747 3.747a.7.7 0 0 1-.99.99l-3.747-3.747-3.748 3.747a.7.7 0 0 1-.99-.99l3.748-3.747-3.748-3.748a.7.7 0 1 1 .99-.99z"/></defs><g><g transform="translate(-295 -27)"><g><use fill="#989eac" xlink:href="#tsnha"/></g><g><use fill="#fff" xlink:href="#tsnhb"/></g></g></g></svg>