<?xml version="1.0" encoding="UTF-8"?><!DOCTYPE svg PUBLIC "-//W3C//DTD SVG 1.1//EN" "http://www.w3.org/Graphics/SVG/1.1/DTD/svg11.dtd"><svg xmlns="http://www.w3.org/2000/svg" xmlns:xlink="http://www.w3.org/1999/xlink"><defs><path d="M85.796 20.103v-.03c0-2.986 2.234-5.431 5.436-5.431 1.966 0 3.143.66 4.111 1.62l-1.46 1.695c-.804-.735-1.623-1.185-2.666-1.185-1.757 0-3.023 1.47-3.023 3.27v.03c0 1.801 1.236 3.302 3.023 3.302 1.192 0 1.922-.48 2.74-1.23l1.46 1.485c-1.072 1.155-2.263 1.875-4.274 1.875-3.069 0-5.347-2.385-5.347-5.401zm14.847 1.08l-4.006-6.362h2.68l2.488 4.216 2.532-4.216h2.607l-4.007 6.317v4.186h-2.294v-4.141zm7.105-1.08v-.03c0-2.986 2.235-5.431 5.437-5.431 1.966 0 3.143.66 4.11 1.62l-1.46 1.695c-.803-.735-1.622-1.185-2.665-1.185-1.758 0-3.024 1.47-3.024 3.27v.03c0 1.801 1.237 3.302 3.024 3.302 1.192 0 1.921-.48 2.74-1.23l1.46 1.485c-1.072 1.155-2.263 1.875-4.275 1.875-3.068 0-5.347-2.385-5.347-5.401zm12.343-5.282h2.294v8.403h5.198v2.1h-7.492V14.821zm9.962 0h7.864v2.056h-5.586v2.13h4.916v2.056h-4.916v2.206h5.66v2.055h-7.938V14.821zm32.582 5.282v-.03c0-2.986 2.235-5.431 5.437-5.431 1.966 0 3.142.66 4.11 1.62l-1.46 1.695c-.803-.735-1.622-1.185-2.665-1.185-1.758 0-3.024 1.47-3.024 3.27v.03c0 1.801 1.237 3.302 3.024 3.302 1.192 0 1.921-.48 2.74-1.23l1.46 1.485c-1.072 1.155-2.264 1.875-4.275 1.875-3.068 0-5.347-2.385-5.347-5.401zm15.32-5.357h2.116l4.468 10.578h-2.398l-.953-2.355h-4.409l-.953 2.355h-2.339l4.469-10.578zm8.63.075h4.767c1.326 0 2.354.375 3.038 1.066.582.585.894 1.41.894 2.4v.03c0 1.696-.908 2.761-2.234 3.256l2.547 3.751h-2.68l-2.235-3.361h-1.802v3.361h-2.294V14.821zm11.656 0h4.767c1.326 0 2.353.375 3.038 1.066.581.585.894 1.41.894 2.4v.03c0 1.696-.909 2.761-2.234 3.256l2.547 3.751h-2.681l-2.234-3.361h-1.803v3.361h-2.294V14.821zm11.841 10.503V14.821h2.294v10.503h-2.294zm8.85-10.578h2.114l4.468 10.578h-2.398l-.953-2.355h-4.408l-.954 2.355h-2.338l4.468-10.578zm7.412 5.357v-.03c0-2.986 2.309-5.431 5.467-5.431 1.876 0 3.008.51 4.095 1.44l-1.444 1.755c-.804-.675-1.52-1.065-2.726-1.065-1.668 0-2.994 1.485-2.994 3.27v.03c0 1.922 1.31 3.332 3.158 3.332.834 0 1.578-.21 2.16-.63v-1.501h-2.309v-1.996h4.528v4.562c-1.073.915-2.547 1.665-4.454 1.665-3.247 0-5.48-2.295-5.48-5.401zm12.717-5.282h7.864v2.056h-5.585v2.13h4.915v2.056h-4.915v2.206H247v2.055h-7.94V14.821zm-84.604 7.137c-.061.11-.113.225-.157.343.372.835 1.278 1.08 2.118 1.058v1.958h-.137c-1.506 0-2.582-.406-3.368-1.274-1.426 1.798-4.659 1.859-6.454.61-.842-.585-1.307-1.516-1.34-2.54-.044-1.354.865-2.494 2.045-3.052a2.216 2.216 0 0 1-.359-3.24c.764-.887 2.057-1.216 3.183-1.176 1.119.04 2.405.488 2.99 1.52.614 1.08.188 2.588-.933 3.142.464.22.882.607 1.208 1.123.766-1.17 1.813-2.128 3.165-2.516v2.552a2.88 2.88 0 0 0-1.96 1.492zM71.741 27.61a.589.589 0 0 1 .815-.225l2.394 1.387a.599.599 0 0 1 .23.8C71.81 35.784 65.27 40 57.75 40c-10.858 0-19.68-8.78-19.852-19.676C37.723 9.235 46.699.022 57.709 0c7.517-.015 14.06 4.181 17.442 10.376a.6.6 0 0 1-.228.8l-2.391 1.394a.59.59 0 0 1-.816-.225C69.02 7.364 63.778 3.982 57.75 3.982c-9.19 0-16.557 7.851-15.855 17.257.59 7.912 6.983 14.258 14.844 14.747 6.468.403 12.165-3.093 15.002-8.375zm-37.895 0a.589.589 0 0 1 .814-.225l2.394 1.387a.599.599 0 0 1 .23.8C33.915 35.784 27.375 40 19.854 40 8.997 40 .174 31.22.003 20.324-.173 9.235 8.803.022 19.813 0c7.518-.015 14.06 4.181 17.443 10.376a.6.6 0 0 1-.228.8l-2.392 1.394a.59.59 0 0 1-.815-.225c-2.696-4.981-7.938-8.363-13.967-8.363-9.189 0-16.556 7.851-15.855 17.257.591 7.912 6.984 14.258 14.845 14.747 6.468.403 12.164-3.093 15.002-8.375zM19.854 6.256c7.536 0 13.644 6.153 13.644 13.744 0 7.59-6.108 13.744-13.644 13.744C12.319 33.744 6.21 27.59 6.21 20S12.32 6.256 19.854 6.256zm37.896 0c7.535 0 13.644 6.153 13.644 13.744 0 7.59-6.11 13.744-13.644 13.744-7.536 0-13.644-6.154-13.644-13.744S50.214 6.256 57.75 6.256zm122.619 14.672l-1.386-3.406-1.384 3.406h2.77zm10.834-1.005c1.118 0 1.758-.6 1.758-1.486v-.03c0-.99-.685-1.5-1.802-1.5h-2.279v3.016h2.323zm11.656 0c1.117 0 1.758-.6 1.758-1.486v-.03c0-.99-.686-1.5-1.803-1.5h-2.279v3.016h2.324zm18.485 1.005l-1.385-3.406-1.385 3.406h2.77zm-72 2.709c.926 0 2.57-.302 2.312-1.557-.218-1.06-1.262-1.811-2.313-1.816-.95-.004-2.027.583-2.031 1.655-.005 1.088 1.056 1.718 2.031 1.718zm.425-7.296c-.661 0-1.432.298-1.43 1.077.004.77.772 1.075 1.43 1.076.656 0 1.449-.3 1.45-1.076 0-.784-.787-1.077-1.45-1.077zM25.371 22.506l4.35 2.53a11.134 11.134 0 0 0 1.18-4.447h-5.02a.882.882 0 0 0-.862.667c-.02.08-.04.16-.063.24a.89.89 0 0 0 .415 1.01zm.525 6.827a11.162 11.162 0 0 0 3.23-3.259l-4.353-2.531a.877.877 0 0 0-1.077.144c-.056.06-.114.118-.173.175a.892.892 0 0 0-.142 1.084l2.515 4.387zm-5.447 1.794a10.938 10.938 0 0 0 4.417-1.194l-2.51-4.38a.88.88 0 0 0-1.006-.418c-.08.024-.16.046-.241.066a.885.885 0 0 0-.66.866v5.06zM15.73 20c0 2.295 1.847 4.156 4.125 4.156 2.279 0 4.125-1.86 4.125-4.156 0-2.295-1.846-4.156-4.125-4.156-2.278 0-4.125 1.861-4.125 4.156zm3.53 11.127v-5.06a.885.885 0 0 0-.659-.866 5.445 5.445 0 0 1-.242-.066.88.88 0 0 0-1.005.417l-2.51 4.381a10.946 10.946 0 0 0 4.417 1.194zm-8.677-5.053c.84 1.3 1.942 2.41 3.23 3.259l2.515-4.387a.892.892 0 0 0-.142-1.084 5.443 5.443 0 0 1-.173-.175.877.877 0 0 0-1.077-.144l-4.353 2.531zm-.595-1.038l4.35-2.53a.89.89 0 0 0 .415-1.01 5.382 5.382 0 0 1-.063-.24.882.882 0 0 0-.861-.667h-5.02c.082 1.595.5 3.1 1.18 4.447zm.008-10.088a11.147 11.147 0 0 0-1.186 4.443h5.024c.403 0 .765-.27.86-.663a5.9 5.9 0 0 1 .064-.237.89.89 0 0 0-.414-1.014l-4.348-2.53zm3.826-4.286a11.154 11.154 0 0 0-3.23 3.249l4.356 2.533a.876.876 0 0 0 1.076-.143c.055-.057.11-.114.168-.169a.893.893 0 0 0 .144-1.085l-2.514-4.385zm5.439-1.789a10.928 10.928 0 0 0-4.409 1.19l2.512 4.381a.879.879 0 0 0 1.004.418c.077-.023.154-.044.232-.063a.886.886 0 0 0 .66-.867V8.873zm1.19 0v5.059c0 .407.267.771.66.867.078.02.155.04.231.063a.879.879 0 0 0 1.005-.418l2.51-4.382a10.925 10.925 0 0 0-4.407-1.189zm8.667 5.038a11.156 11.156 0 0 0-3.23-3.25l-2.513 4.386a.893.893 0 0 0 .143 1.085c.058.055.113.112.168.17a.876.876 0 0 0 1.076.142l4.356-2.533zm.596 1.037l-4.348 2.529a.89.89 0 0 0-.414 1.014c.023.078.044.157.064.237a.881.881 0 0 0 .86.663H30.9a11.14 11.14 0 0 0-1.186-4.443zm-9.859 2.643a2.39 2.39 0 0 1 2.381 2.399 2.39 2.39 0 0 1-2.38 2.399 2.39 2.39 0 0 1-2.382-2.4 2.39 2.39 0 0 1 2.381-2.398zm38.608 13.53c5.482-.346 9.94-4.8 10.322-10.32.452-6.517-4.662-11.944-11.034-11.944-4.456 0-8.293 2.654-10.046 6.477l1.984 1.156c1.352-3.137 4.456-5.338 8.062-5.338 3.604 0 6.707 2.2 8.06 5.335l-1.037.604c-1.136-2.782-3.852-4.74-7.023-4.74-3.173 0-5.89 1.96-7.025 4.743l2.003 1.167c.719-2.1 2.696-3.615 5.022-3.615 2.324 0 4.302 1.512 5.022 3.61l-1.055.615c-.488-1.745-2.078-3.027-3.967-3.027-1.891 0-3.481 1.283-3.968 3.031-.1.358-.158.734-.158 1.125 0 .382.056.75.152 1.102.48 1.76 2.075 3.054 3.974 3.054 1.897 0 3.491-1.292 3.973-3.05l1.057.612c-.669 1.972-2.462 3.44-4.58 3.617-2.527.211-4.723-1.373-5.48-3.62l-2.006 1.163c1.128 2.798 3.853 4.772 7.036 4.772 3.182 0 5.905-1.973 7.035-4.769l.519.3.519.302c-1.345 3.151-4.457 5.365-8.073 5.365-3.618 0-6.73-2.215-8.075-5.368L47.69 24.63c1.837 4.045 6.004 6.791 10.773 6.49zM55.368 19.99a2.39 2.39 0 0 1 2.382-2.399 2.39 2.39 0 0 1 2.38 2.399 2.39 2.39 0 0 1-2.38 2.399 2.39 2.39 0 0 1-2.382-2.4z" id="icon-logo-cnc-a"/></defs><symbol id="icon-accessories" viewBox="0 0 24 24"><g fill-rule="evenodd"><path d="M11.027 16.294a.5.5 0 0 1 0 1H6.911v.565c0 .72-.585 1.305-1.305 1.305h-.868a1.306 1.306 0 0 1-1.304-1.305v-4.215c0-.668.126-1.322.373-1.944l.122-.304h-.016c-.78 0-1.413-.634-1.413-1.413v-.425c0-.432.193-.833.531-1.103a1.397 1.397 0 0 1 1.194-.274l.906.205.321-.804a4.872 4.872 0 0 1 4.55-3.082h3.283a4.875 4.875 0 0 1 4.55 3.082l.32.804.905-.205c.424-.1.857.005 1.195.274.336.27.53.671.53 1.103v.425c0 .779-.634 1.413-1.412 1.413h-.756a.5.5 0 1 1 0-1h.756a.413.413 0 0 0 .412-.413v-.425a.414.414 0 0 0-.504-.403l-1.322.3a.493.493 0 0 1-.575-.302l-.479-1.2a3.88 3.88 0 0 0-3.62-2.453h-3.284a3.876 3.876 0 0 0-3.62 2.453l-.48 1.2a.49.49 0 0 1-.575.302l-1.322-.3a.413.413 0 0 0-.504.403v.425c0 .228.185.413.413.413h.755a.5.5 0 0 1 .463.685l-.395.989a4.248 4.248 0 0 0-.302 1.574v4.215c0 .168.137.305.304.305h.868a.306.306 0 0 0 .305-.305v-1.065a.5.5 0 0 1 .5-.5h4.616zm-2.242-2.583v-.229a.086.086 0 0 0-.06-.081l-1.235-.354-.106.08v.584c0 .046.038.084.083.084h1.235a.084.084 0 0 0 .083-.084zm-1.02-1.625L9 12.44c.462.132.785.561.785 1.042v.229c0 .598-.485 1.084-1.083 1.084H7.467a1.084 1.084 0 0 1-1.083-1.084v-.584c0-.343.157-.658.431-.865.273-.206.617-.274.95-.176zm8.82 7.273a3.486 3.486 0 0 0 3.483-3.482 3.487 3.487 0 0 0-3.483-3.484 3.487 3.487 0 0 0-3.482 3.484 3.486 3.486 0 0 0 3.482 3.482zm0-7.966a4.489 4.489 0 0 1 4.483 4.484 4.488 4.488 0 0 1-4.483 4.482 4.487 4.487 0 0 1-4.482-4.482 4.488 4.488 0 0 1 4.482-4.484zm1.667 3.984a.5.5 0 0 1 0 1h-1.167v1.166a.5.5 0 0 1-1 0v-1.166h-1.166a.5.5 0 0 1 0-1h1.166V14.21a.5.5 0 0 1 1 0v1.167h1.167z"/><path d="M11.027 16.294a.5.5 0 0 1 0 1H6.911v.565c0 .72-.585 1.305-1.305 1.305h-.868a1.306 1.306 0 0 1-1.304-1.305v-4.215c0-.668.126-1.322.373-1.944l.122-.304h-.016c-.78 0-1.413-.634-1.413-1.413v-.425c0-.432.193-.833.531-1.103a1.397 1.397 0 0 1 1.194-.274l.906.205.321-.804a4.872 4.872 0 0 1 4.55-3.082h3.283a4.875 4.875 0 0 1 4.55 3.082l.32.804.905-.205c.424-.1.857.005 1.195.274.336.27.53.671.53 1.103v.425c0 .779-.634 1.413-1.412 1.413h-.756a.5.5 0 1 1 0-1h.756a.413.413 0 0 0 .412-.413v-.425a.414.414 0 0 0-.504-.403l-1.322.3a.493.493 0 0 1-.575-.302l-.479-1.2a3.88 3.88 0 0 0-3.62-2.453h-3.284a3.876 3.876 0 0 0-3.62 2.453l-.48 1.2a.49.49 0 0 1-.575.302l-1.322-.3a.413.413 0 0 0-.504.403v.425c0 .228.185.413.413.413h.755a.5.5 0 0 1 .463.685l-.395.989a4.248 4.248 0 0 0-.302 1.574v4.215c0 .168.137.305.304.305h.868a.306.306 0 0 0 .305-.305v-1.065a.5.5 0 0 1 .5-.5h4.616zm-2.242-2.583v-.229a.086.086 0 0 0-.06-.081l-1.235-.354-.106.08v.584c0 .046.038.084.083.084h1.235a.084.084 0 0 0 .083-.084zm-1.02-1.625L9 12.44c.462.132.785.561.785 1.042v.229c0 .598-.485 1.084-1.083 1.084H7.467a1.084 1.084 0 0 1-1.083-1.084v-.584c0-.343.157-.658.431-.865.273-.206.617-.274.95-.176zm8.82 7.273a3.486 3.486 0 0 0 3.483-3.482 3.487 3.487 0 0 0-3.483-3.484 3.487 3.487 0 0 0-3.482 3.484 3.486 3.486 0 0 0 3.482 3.482zm0-7.966a4.489 4.489 0 0 1 4.483 4.484 4.488 4.488 0 0 1-4.483 4.482 4.487 4.487 0 0 1-4.482-4.482 4.488 4.488 0 0 1 4.482-4.484zm1.667 3.984a.5.5 0 0 1 0 1h-1.167v1.166a.5.5 0 0 1-1 0v-1.166h-1.166a.5.5 0 0 1 0-1h1.166V14.21a.5.5 0 0 1 1 0v1.167h1.167z"/></g></symbol><symbol id="icon-add" viewBox="0 0 24 24"><g fill-rule="nonzero"><path d="M6.5 12.5h11.366" stroke="#82A0B0" stroke-width="1.4" stroke-linecap="round" stroke-linejoin="round"/><path d="M11.3 11.8V6.5a.7.7 0 0 1 1.4 0v5.3H18a.7.7 0 0 1 0 1.4h-5.3v5.3a.7.7 0 0 1-1.4 0v-5.3H6a.7.7 0 0 1 0-1.4h5.3z"/></g></symbol><symbol id="icon-alert" viewBox="0 0 24 24"><path d="M12 21a9 9 0 1 1 0-18 9 9 0 0 1 0 18zm0-15a1 1 0 0 0-1 1v7a1 1 0 0 0 2 0V7a1 1 0 0 0-1-1zm0 10a1 1 0 1 0 0 2 1 1 0 0 0 0-2z" fill-rule="evenodd"/></symbol><symbol id="icon-arrow-prev" viewBox="0 0 24 24"><g fill-rule="evenodd"><path d="M2.798 12.115l.01.008-.002-.015-.008.007zM9 5.88c0 .224-.089.45-.272.621l-5.816 5.506L8.726 17.5a.843.843 0 0 1 0 1.243.969.969 0 0 1-1.314 0L1.48 13.142c-.633-.563-.653-1.688.018-2.284l5.912-5.6a.97.97 0 0 1 1.316-.001A.851.851 0 0 1 9 5.88z"/><path d="M2 11h19a1 1 0 0 1 0 2H2v-2z" fill-rule="nonzero"/></g></symbol><symbol id="icon-bundle" viewBox="0 0 24 24"><path d="M16 9.721l-3.5 1.884v8.558l3.5-1.884V16.2a.5.5 0 1 1 1 0v1.54l2.5-1.345V7.837L17 9.183v2.356a.5.5 0 1 1-1 0V9.721zm-.76-.726L8.407 5.227 5.023 6.983 12 10.739l3.24-1.744zm1.047-.564l2.69-1.448L12 3.363l-2.525 1.31 6.812 3.758zM3.501 6.976a.5.5 0 0 1 .269-.47l8-4.15a.5.5 0 0 1 .46 0l8 4.15A.5.5 0 0 1 20.5 7v9.694a.5.5 0 0 1-.263.44l-7.998 4.305-.002.001a.495.495 0 0 1-.476-.001l-7.998-4.305a.5.5 0 0 1-.263-.44V7v-.024zM11.5 20.163v-8.558l-7-3.768v8.558l7 3.768z" fill-rule="nonzero"/></symbol><symbol id="icon-car-company" viewBox="0 0 40 40"><path d="M27.997 30.538h6.172V7.658H17.115v7.75a.666.666 0 1 1-1.333 0V6.992c0-.368.298-.667.666-.667h4.056V4.667c0-.368.299-.667.667-.667h8.943c.368 0 .666.299.666.667v1.658h4.056c.368 0 .667.299.667.667v23.546h1.113a.667.667 0 0 1 0 1.334H25.74a.667.667 0 0 1 0-1.334h.924v-2.783h-.924a.667.667 0 0 1 0-1.333h1.59c.369 0 .667.298.667.666v3.45zm-6.16-24.213h7.61v-.991h-7.61v.99zM7.974 31.537h13.214c.368 0 .667.299.667.667v1.347c0 .192.156.348.348.348H23.3a.349.349 0 0 0 .349-.348v-5.325c0-.678-.128-1.343-.379-1.974l-.5-1.25a.667.667 0 0 1 .62-.914h.953a.486.486 0 0 0 .485-.485v-.537a.48.48 0 0 0-.181-.378c-.12-.096-.266-.128-.41-.096l-1.671.38a.662.662 0 0 1-.766-.404l-.606-1.515a4.864 4.864 0 0 0-4.54-3.077h-4.147a4.865 4.865 0 0 0-4.54 3.077l-.604 1.515a.668.668 0 0 1-.767.403l-1.67-.379a.484.484 0 0 0-.593.474v.537c0 .268.218.485.486.485h.953a.668.668 0 0 1 .62.914l-.5 1.25a5.307 5.307 0 0 0-.378 1.974v5.325c0 .192.156.348.348.348h1.096a.35.35 0 0 0 .35-.348v-1.347c0-.368.298-.667.666-.667zM23.3 35.232h-1.097a1.683 1.683 0 0 1-1.681-1.681v-.68H8.64v.68c0 .928-.755 1.681-1.683 1.681H5.862a1.683 1.683 0 0 1-1.682-1.681v-5.325c0-.851.16-1.68.475-2.468l.133-.336A1.822 1.822 0 0 1 3 23.603v-.537c0-.555.25-1.074.684-1.42.437-.35 1-.478 1.539-.352l1.113.251.394-.987a6.189 6.189 0 0 1 5.777-3.915h4.148a6.19 6.19 0 0 1 5.777 3.915l.394.987 1.114-.252a1.805 1.805 0 0 1 1.537.352c.436.347.685.865.685 1.421v.537c0 .992-.8 1.803-1.788 1.819l.134.336c.314.79.474 1.62.474 2.468v5.325c0 .928-.755 1.681-1.682 1.681zM9.327 27.506l-.09.068v.737c0 .038.033.07.07.07h1.56c.037 0 .07-.032.07-.07v-.29l-.05-.067-1.56-.448zm1.54 2.208h-1.56c-.773 0-1.403-.63-1.403-1.403v-.737c0-.445.205-.854.56-1.121a1.384 1.384 0 0 1 1.231-.228l1.56.448a1.41 1.41 0 0 1 1.015 1.349v.29c0 .773-.629 1.402-1.403 1.402zm8.784-2.849l.184.641-1.56.448-.05.068v.29c0 .037.032.069.07.069h1.56c.037 0 .07-.032.07-.07v-.737l-.274-.709zm.204 2.85h-1.56c-.774 0-1.403-.63-1.403-1.403v-.29a1.41 1.41 0 0 1 1.016-1.35l1.559-.447a1.39 1.39 0 0 1 1.23.226c.358.271.561.68.561 1.123v.738c0 .773-.63 1.402-1.403 1.402zm.194-18.368h10.98v-.71H20.05v.71zm11.646 1.334H19.382a.667.667 0 0 1-.666-.667V9.97c0-.368.298-.667.666-.667h12.313c.368 0 .667.299.667.667v2.044a.667.667 0 0 1-.667.667zM20.05 15.49h10.98v-.712H20.05v.711zm11.646 1.333H19.382a.667.667 0 0 1-.666-.667v-2.044c0-.368.298-.667.666-.667h12.313c.368 0 .667.299.667.667v2.044a.667.667 0 0 1-.667.667zm0 4.144h-8.113a.667.667 0 0 1 0-1.334h7.447v-.712h-8.743a.667.667 0 0 1 0-1.333h9.41c.367 0 .666.299.666.667V20.3a.667.667 0 0 1-.667.667zm0 3.884h-4.531a.667.667 0 0 1 0-1.333h3.865v-.712h-3.865a.667.667 0 0 1 0-1.333h4.531c.368 0 .667.298.667.666v2.046a.667.667 0 0 1-.667.666z" fill-rule="evenodd"/></symbol><symbol id="icon-car-private" viewBox="0 0 40 40"><g fill-rule="evenodd"><path d="M9.198 32.917H7.699a2.089 2.089 0 0 1-2.086-2.086v-7.28c0-1.133.213-2.242.634-3.294l.3-.75h-.274A2.276 2.276 0 0 1 4 17.231v-.734c0-.695.312-1.342.855-1.776a2.268 2.268 0 0 1 1.923-.44l1.7.385.605-1.518a8.248 8.248 0 0 1 7.7-5.218h5.67c1.49 0 2.948.396 4.219 1.144a.7.7 0 0 1-.71 1.204 6.916 6.916 0 0 0-3.509-.952h-5.67a6.86 6.86 0 0 0-6.403 4.34l-.827 2.073a.697.697 0 0 1-.803.421l-2.283-.517a.854.854 0 0 0-.74.17.871.871 0 0 0-.33.684v.734c0 .484.392.878.876.878h1.304a.698.698 0 0 1 .648.957l-.681 1.708a7.457 7.457 0 0 0-.535 2.777v7.279c0 .38.31.69.69.69h1.499c.38 0 .69-.31.69-.69V28.99c0-.385.313-.698.698-.698h9.62a.699.699 0 0 1 0 1.396h-8.922v1.143a2.09 2.09 0 0 1-2.086 2.086"/><path d="M12.408 22.351a.305.305 0 0 0-.184.063.305.305 0 0 0-.123.246v1.009c0 .17.138.309.308.309h2.132c.17 0 .309-.139.309-.31v-.395a.311.311 0 0 0-.224-.297l-2.131-.612a.322.322 0 0 0-.087-.013m2.133 3.023H12.41c-.94 0-1.704-.765-1.704-1.705V22.66c0-.54.247-1.036.678-1.36a1.688 1.688 0 0 1 1.497-.278l2.132.611c.727.21 1.234.884 1.234 1.64v.396c0 .94-.764 1.705-1.705 1.705M28.553 12.275a3.148 3.148 0 0 0-3.144 3.143 3.148 3.148 0 0 0 3.144 3.144 3.147 3.147 0 0 0 3.144-3.144 3.147 3.147 0 0 0-3.144-3.143m0 7.683a4.546 4.546 0 0 1-4.54-4.54 4.545 4.545 0 0 1 4.54-4.54 4.545 4.545 0 0 1 4.54 4.54 4.546 4.546 0 0 1-4.54 4.54M23.125 32.474h11.686V27.67a5.85 5.85 0 0 0-5.843-5.843 5.85 5.85 0 0 0-5.843 5.843v4.804zm12.384 1.397H22.427a.699.699 0 0 1-.698-.698V27.67c0-3.991 3.247-7.24 7.239-7.24s7.24 3.249 7.24 7.24v5.503a.699.699 0 0 1-.699.698z"/></g></symbol><symbol id="icon-car" viewBox="0 0 24 24"><path d="M20.101 10.411v-.42a.399.399 0 0 0-.151-.316.398.398 0 0 0-.342-.079l-1.31.297a.5.5 0 0 1-.575-.302l-.476-1.189a3.835 3.835 0 0 0-3.582-2.428H10.41a3.837 3.837 0 0 0-3.583 2.429L6.353 9.59a.5.5 0 0 1-.575.302l-1.311-.297a.398.398 0 0 0-.343.08.397.397 0 0 0-.15.315v.42c0 .222.182.405.404.405h.748a.5.5 0 0 1 .464.685l-.391.98c-.2.5-.3 1.023-.3 1.558v4.178c0 .163.133.296.297.296h.86a.297.297 0 0 0 .297-.296V17.16a.5.5 0 0 1 .5-.5h10.37a.5.5 0 0 1 .5.5v1.057c0 .163.133.296.295.296h.862a.297.297 0 0 0 .295-.296v-4.178c0-.537-.1-1.06-.298-1.557l-.392-.98a.5.5 0 0 1 .464-.686h.748a.406.406 0 0 0 .404-.405zm-.715-1.79c.418-.095.852.005 1.188.273.334.266.527.668.527 1.097v.42c0 .775-.63 1.405-1.404 1.405h-.01l.118.295c.246.616.37 1.264.37 1.928v4.178c0 .715-.58 1.296-1.295 1.296h-.862a1.297 1.297 0 0 1-1.295-1.296v-.557h-9.37v.557c0 .715-.581 1.296-1.297 1.296h-.86a1.297 1.297 0 0 1-1.297-1.296v-4.178c0-.663.125-1.311.371-1.928l.118-.295h-.01c-.774 0-1.405-.63-1.405-1.405v-.42c0-.43.194-.831.528-1.097.336-.268.77-.368 1.187-.273l.894.202.317-.791a4.837 4.837 0 0 1 4.511-3.058h3.255a4.835 4.835 0 0 1 4.51 3.057l.318.792.893-.202zM10.2 13.88v.226c0 .596-.482 1.08-1.078 1.08H7.9a1.078 1.078 0 0 1-1.077-1.08v-.578c0-.34.158-.656.428-.86.271-.205.619-.27.948-.176l1.223.351c.461.133.78.556.78 1.037zm-2.279-.427a.073.073 0 0 0-.069.013.073.073 0 0 0-.03.062v.578c0 .044.035.08.076.08h1.224a.079.079 0 0 0 .078-.08v-.226a.08.08 0 0 0-.057-.076l-1.222-.35zm5.952.427c0-.48.319-.904.78-1.037l1.224-.352c.328-.093.675-.028.946.177.271.204.43.52.43.86v.578a1.08 1.08 0 0 1-1.08 1.079h-1.223a1.078 1.078 0 0 1-1.077-1.079v-.226zm1 0v.226c0 .044.035.079.077.079h1.224a.08.08 0 0 0 .078-.079v-.578a.074.074 0 0 0-.031-.062.074.074 0 0 0-.069-.013l-1.223.35a.082.082 0 0 0-.056.077z" fill-rule="nonzero"/></symbol><symbol id="icon-chevron-down" viewBox="0 0 24 24"><path d="M20.364 7.364a.9.9 0 1 1 1.272 1.272l-9 9a.9.9 0 0 1-1.272 0l-9-9a.9.9 0 1 1 1.272-1.272L12 15.727l8.364-8.363z" fill-rule="nonzero"/></symbol><symbol id="icon-chevron-up" viewBox="0 0 24 24"><path d="M20.364 17.636a.9.9 0 1 0 1.272-1.272l-9-9a.9.9 0 0 0-1.272 0l-9 9a.9.9 0 1 0 1.272 1.272L12 9.273l8.364 8.363z" fill-rule="nonzero"/></symbol><symbol id="icon-clear" viewBox="0 0 24 24"><g fill-rule="evenodd"><circle cx="12" cy="12" r="9"/><path d="M12 11.51l3.748-3.748a.7.7 0 1 1 .99.99L12.99 12.5l3.748 3.748a.7.7 0 0 1-.99.99L12 13.49l-3.748 3.748a.7.7 0 0 1-.99-.99L11.01 12.5 7.262 8.752a.7.7 0 1 1 .99-.99L12 11.51z" fill-rule="nonzero"/></g></symbol><symbol id="icon-coe" viewBox="0 0 24 24"><path d="M18.05 15.85c-.426.224-.91.35-1.425.35-.514 0-.999-.126-1.425-.35v2.904l1.215-.64a.45.45 0 0 1 .42 0l1.215.64v-2.903zm.9-.712V19.5a.45.45 0 0 1-.66.398l-1.665-.878-1.665.878a.45.45 0 0 1-.66-.398v-4.362a3.075 3.075 0 1 1 4.65 0zM8.958 4.2v3.21a.45.45 0 0 1-.45.45H6.2v9.122h7.194a.45.45 0 0 1 0 .9H5.75a.45.45 0 0 1-.45-.45V7.057a.45.45 0 0 1 .105-.29l2.71-3.237a.45.45 0 0 1 .403-.23H17a.45.45 0 0 1 .45.45v5.44a.45.45 0 0 1-.9 0V4.2H8.958zm-.9.8l-1.64 1.96h1.64V5zm8.567 10.3a2.175 2.175 0 1 0 0-4.35 2.175 2.175 0 0 0 0 4.35zm-8.117-4.625c-.249 0-.45-.224-.45-.5s.201-.5.45-.5h3.606c.249 0 .45.224.45.5s-.201.5-.45.5H8.508zm0 2.25c-.249 0-.45-.224-.45-.5s.201-.5.45-.5h3.606c.249 0 .45.224.45.5s-.201.5-.45.5H8.508zm0 2.25c-.249 0-.45-.224-.45-.5s.201-.5.45-.5h3.606c.249 0 .45.224.45.5s-.201.5-.45.5H8.508z" fill-rule="nonzero"/></symbol><symbol id="icon-colour" viewBox="0 0 24 24"><path d="M12 20.586c-3.301 0-6-2.402-6-5.396 0-1.949 1.86-5.445 5.589-10.62L12 4l.411.57C16.14 9.746 18 13.242 18 15.19c0 2.994-2.699 5.396-6 5.396zM7.014 15.19c0 2.406 2.22 4.382 4.986 4.382 2.766 0 4.986-1.976 4.986-4.382 0-1.586-1.664-4.775-4.986-9.451-3.322 4.676-4.986 7.865-4.986 9.451zm1.557-2.296c2.46.293 4.439 3.733 7.218 1.426.01.093.014.182.014.266a3.802 3.802 0 0 1-7.606 0c0-.438.125-1.002.374-1.692z" fill-rule="nonzero"/></symbol><symbol id="icon-company" viewBox="0 0 40 40"><path d="M27.997 30.538h6.172V7.658H17.115v7.75a.666.666 0 1 1-1.333 0V6.992c0-.368.298-.667.666-.667h4.056V4.667c0-.368.299-.667.667-.667h8.943c.368 0 .666.299.666.667v1.658h4.056c.368 0 .667.299.667.667v23.546h1.113a.667.667 0 0 1 0 1.334H25.74a.667.667 0 0 1 0-1.334h.924v-2.783h-.924a.667.667 0 0 1 0-1.333h1.59c.369 0 .667.298.667.666v3.45zm-6.16-24.213h7.61v-.991h-7.61v.99zM7.974 31.537h13.214c.368 0 .667.299.667.667v1.347c0 .192.156.348.348.348H23.3a.349.349 0 0 0 .349-.348v-5.325c0-.678-.128-1.343-.379-1.974l-.5-1.25a.667.667 0 0 1 .62-.914h.953a.486.486 0 0 0 .485-.485v-.537a.48.48 0 0 0-.181-.378c-.12-.096-.266-.128-.41-.096l-1.671.38a.662.662 0 0 1-.766-.404l-.606-1.515a4.864 4.864 0 0 0-4.54-3.077h-4.147a4.865 4.865 0 0 0-4.54 3.077l-.604 1.515a.668.668 0 0 1-.767.403l-1.67-.379a.484.484 0 0 0-.593.474v.537c0 .268.218.485.486.485h.953a.668.668 0 0 1 .62.914l-.5 1.25a5.307 5.307 0 0 0-.378 1.974v5.325c0 .192.156.348.348.348h1.096a.35.35 0 0 0 .35-.348v-1.347c0-.368.298-.667.666-.667zM23.3 35.232h-1.097a1.683 1.683 0 0 1-1.681-1.681v-.68H8.64v.68c0 .928-.755 1.681-1.683 1.681H5.862a1.683 1.683 0 0 1-1.682-1.681v-5.325c0-.851.16-1.68.475-2.468l.133-.336A1.822 1.822 0 0 1 3 23.603v-.537c0-.555.25-1.074.684-1.42.437-.35 1-.478 1.539-.352l1.113.251.394-.987a6.189 6.189 0 0 1 5.777-3.915h4.148a6.19 6.19 0 0 1 5.777 3.915l.394.987 1.114-.252a1.805 1.805 0 0 1 1.537.352c.436.347.685.865.685 1.421v.537c0 .992-.8 1.803-1.788 1.819l.134.336c.314.79.474 1.62.474 2.468v5.325c0 .928-.755 1.681-1.682 1.681zM9.327 27.506l-.09.068v.737c0 .038.033.07.07.07h1.56c.037 0 .07-.032.07-.07v-.29l-.05-.067-1.56-.448zm1.54 2.208h-1.56c-.773 0-1.403-.63-1.403-1.403v-.737c0-.445.205-.854.56-1.121a1.384 1.384 0 0 1 1.231-.228l1.56.448a1.41 1.41 0 0 1 1.015 1.349v.29c0 .773-.629 1.402-1.403 1.402zm8.784-2.849l.184.641-1.56.448-.05.068v.29c0 .037.032.069.07.069h1.56c.037 0 .07-.032.07-.07v-.737l-.274-.709zm.204 2.85h-1.56c-.774 0-1.403-.63-1.403-1.403v-.29a1.41 1.41 0 0 1 1.016-1.35l1.559-.447a1.39 1.39 0 0 1 1.23.226c.358.271.561.68.561 1.123v.738c0 .773-.63 1.402-1.403 1.402zm.194-18.368h10.98v-.71H20.05v.71zm11.646 1.334H19.382a.667.667 0 0 1-.666-.667V9.97c0-.368.298-.667.666-.667h12.313c.368 0 .667.299.667.667v2.044a.667.667 0 0 1-.667.667zM20.05 15.49h10.98v-.712H20.05v.711zm11.646 1.333H19.382a.667.667 0 0 1-.666-.667v-2.044c0-.368.298-.667.666-.667h12.313c.368 0 .667.299.667.667v2.044a.667.667 0 0 1-.667.667zm0 4.144h-8.113a.667.667 0 0 1 0-1.334h7.447v-.712h-8.743a.667.667 0 0 1 0-1.333h9.41c.367 0 .666.299.666.667V20.3a.667.667 0 0 1-.667.667zm0 3.884h-4.531a.667.667 0 0 1 0-1.333h3.865v-.712h-3.865a.667.667 0 0 1 0-1.333h4.531c.368 0 .667.298.667.666v2.046a.667.667 0 0 1-.667.666z" fill-rule="evenodd"/></symbol><symbol id="icon-deal-white" viewBox="0 0 24 24"><g fill-rule="nonzero"><path d="M4 7.6a.4.4 0 0 0-.4.4v6c0 .22.18.4.4.4h1a.4.4 0 0 0 .4-.4V8a.4.4 0 0 0-.4-.4H4zm0-1.2h1A1.6 1.6 0 0 1 6.6 8v6A1.6 1.6 0 0 1 5 15.6H4A1.6 1.6 0 0 1 2.4 14V8A1.6 1.6 0 0 1 4 6.4zM19 7.6a.4.4 0 0 0-.4.4v6c0 .22.18.4.4.4h1a.4.4 0 0 0 .4-.4V8a.4.4 0 0 0-.4-.4h-1zm0-1.2h1A1.6 1.6 0 0 1 21.6 8v6a1.6 1.6 0 0 1-1.6 1.6h-1a1.6 1.6 0 0 1-1.6-1.6V8A1.6 1.6 0 0 1 19 6.4z"/><path d="M11.245 9.52a2.343 2.343 0 0 1 3.219.398l1.936 2.38a1.775 1.775 0 0 1-.122 2.376 1.66 1.66 0 0 1-2.348 0l-2.25-2.25a.6.6 0 0 1 .848-.848l2.25 2.25c.18.18.472.18.652 0a.575.575 0 0 0 .04-.77l-1.937-2.38a1.143 1.143 0 0 0-1.57-.195 2.532 2.532 0 0 1-3.305-.239L8.415 10a.6.6 0 0 1 0-.849l3.576-3.575a.6.6 0 0 1 .424-.176h2.472a.6.6 0 0 1 .424.176l3 3a.6.6 0 1 1-.848.848L14.639 6.6h-1.975L9.706 9.558c.461.31 1.079.304 1.539-.039z"/><path d="M11.69 12.424a.6.6 0 0 1 .848-.848l2.475 2.475a1.6 1.6 0 1 1-2.262 2.262l-2.475-2.475a.6.6 0 0 1 .848-.848l2.475 2.475a.4.4 0 1 0 .566-.566l-2.475-2.475z"/><path d="M10.547 14.131a.6.6 0 0 1 .849-.848l1.767 1.768a1.6 1.6 0 1 1-2.262 2.262l-1.768-1.767a.6.6 0 0 1 .848-.849l1.768 1.768a.4.4 0 1 0 .566-.566l-1.768-1.768z"/><path d="M5.12 15.6a.6.6 0 1 1 0-1.2h1.377a.6.6 0 0 1 .42.17l3.262 3.191c.161.158.42.156.579-.003a.4.4 0 0 0 0-.566l-2.475-2.475a.6.6 0 0 1 .848-.848l2.475 2.475a1.6 1.6 0 0 1 0 2.262 1.611 1.611 0 0 1-2.266.013l-3.088-3.02H5.12zM6 8a.5.5 0 0 1 0-1h4.964a.5.5 0 1 1 0 1H6zM15.264 15.864a.6.6 0 0 1-.528-1.078l2.704-1.325a.6.6 0 1 1 .528 1.078l-2.704 1.325z"/></g></symbol><symbol id="icon-deal" viewBox="0 0 24 24"><g fill-rule="nonzero"><path d="M4 7.6a.4.4 0 0 0-.4.4v6c0 .22.18.4.4.4h1a.4.4 0 0 0 .4-.4V8a.4.4 0 0 0-.4-.4H4zm0-1.2h1A1.6 1.6 0 0 1 6.6 8v6A1.6 1.6 0 0 1 5 15.6H4A1.6 1.6 0 0 1 2.4 14V8A1.6 1.6 0 0 1 4 6.4zM19 7.6a.4.4 0 0 0-.4.4v6c0 .22.18.4.4.4h1a.4.4 0 0 0 .4-.4V8a.4.4 0 0 0-.4-.4h-1zm0-1.2h1A1.6 1.6 0 0 1 21.6 8v6a1.6 1.6 0 0 1-1.6 1.6h-1a1.6 1.6 0 0 1-1.6-1.6V8A1.6 1.6 0 0 1 19 6.4z"/><path d="M11.245 9.52a2.343 2.343 0 0 1 3.219.398l1.936 2.38a1.775 1.775 0 0 1-.122 2.376 1.66 1.66 0 0 1-2.348 0l-2.25-2.25a.6.6 0 0 1 .848-.848l2.25 2.25c.18.18.472.18.652 0a.575.575 0 0 0 .04-.77l-1.937-2.38a1.143 1.143 0 0 0-1.57-.195 2.532 2.532 0 0 1-3.305-.239L8.415 10a.6.6 0 0 1 0-.849l3.576-3.575a.6.6 0 0 1 .424-.176h2.472a.6.6 0 0 1 .424.176l3 3a.6.6 0 1 1-.848.848L14.639 6.6h-1.975L9.706 9.558c.461.31 1.079.304 1.539-.039z"/><path d="M11.69 12.424a.6.6 0 0 1 .848-.848l2.475 2.475a1.6 1.6 0 1 1-2.262 2.262l-2.475-2.475a.6.6 0 0 1 .848-.848l2.475 2.475a.4.4 0 1 0 .566-.566l-2.475-2.475z"/><path d="M10.547 14.131a.6.6 0 0 1 .849-.848l1.767 1.768a1.6 1.6 0 1 1-2.262 2.262l-1.768-1.767a.6.6 0 0 1 .848-.849l1.768 1.768a.4.4 0 1 0 .566-.566l-1.768-1.768z"/><path d="M5.12 15.6a.6.6 0 1 1 0-1.2h1.377a.6.6 0 0 1 .42.17l3.262 3.191c.161.158.42.156.579-.003a.4.4 0 0 0 0-.566l-2.475-2.475a.6.6 0 0 1 .848-.848l2.475 2.475a1.6 1.6 0 0 1 0 2.262 1.611 1.611 0 0 1-2.266.013l-3.088-3.02H5.12zM6 8a.5.5 0 0 1 0-1h4.964a.5.5 0 1 1 0 1H6zM15.264 15.864a.6.6 0 0 1-.528-1.078l2.704-1.325a.6.6 0 1 1 .528 1.078l-2.704 1.325z"/></g></symbol><symbol id="icon-delete" viewBox="0 0 24 24"><g fill-rule="nonzero"><path d="M7.5 7.5V18A1.5 1.5 0 0 0 9 19.5h7a1.5 1.5 0 0 0 1.5-1.5V7.5h-10zm-.5-1h11a.5.5 0 0 1 .5.5v11a2.5 2.5 0 0 1-2.5 2.5H9A2.5 2.5 0 0 1 6.5 18V7a.5.5 0 0 1 .5-.5z"/><path d="M10.5 5.5v1h4v-1h-4zm-.5-1h5a.5.5 0 0 1 .5.5v2a.5.5 0 0 1-.5.5h-5a.5.5 0 0 1-.5-.5V5a.5.5 0 0 1 .5-.5z"/><path d="M5.5 7.5a.5.5 0 0 1 0-1h14a.5.5 0 1 1 0 1h-14zM10 10.5a.5.5 0 1 1 1 0v5.523a.5.5 0 1 1-1 0V10.5zM12 10.5a.5.5 0 1 1 1 0v5.523a.5.5 0 1 1-1 0V10.5zM14 10.5a.5.5 0 1 1 1 0v5.523a.5.5 0 1 1-1 0V10.5z"/></g></symbol><symbol id="icon-discount" viewBox="0 0 24 24"><g fill-rule="evenodd"><path d="M12.656 5.156a1.5 1.5 0 0 0-1.144.437l-7.5 7.499a1.5 1.5 0 0 0 0 2.121l4.95 4.95a1.5 1.5 0 0 0 2.122 0l7.506-7.506a1.5 1.5 0 0 0 .437-1.132l-.222-4.677a1.5 1.5 0 0 0-1.415-1.426l-4.734-.266zm.056-.998l4.734.265a2.5 2.5 0 0 1 2.357 2.378l.223 4.676a2.5 2.5 0 0 1-.73 1.887l-7.505 7.506a2.5 2.5 0 0 1-3.536 0l-4.95-4.95a2.5 2.5 0 0 1 0-3.535l7.5-7.5a2.5 2.5 0 0 1 1.907-.727z" fill-rule="nonzero"/><circle cx="17" cy="7" r="1"/><path d="M10.535 10.552c.292.293.564.2.76.003.201-.2.29-.468-.003-.76-.298-.298-.553-.198-.754.003-.197.197-.301.456-.003.754zm1.51-1.519c.848.849.649 1.639.007 2.28-.627.627-1.43.84-2.279-.008-.841-.84-.62-1.637.007-2.264.642-.641 1.424-.849 2.265-.008zm-1.51 6.875c.292.292.564.2.76.003.201-.202.29-.468-.003-.76-.298-.299-.553-.199-.754.002-.197.197-.301.457-.003.755zm1.51-1.52c.848.849.649 1.639.007 2.28-.627.627-1.43.841-2.279-.007-.841-.841-.62-1.638.007-2.265.642-.641 1.424-.848 2.265-.007zm1.766-2.647c.2.2.225.488.053.66a.387.387 0 0 1-.169.094l-6.282 1.62c-.152.032-.314.002-.47-.154-.2-.2-.217-.481-.046-.653a.365.365 0 0 1 .176-.101l6.269-1.606c.116-.042.306-.024.47.14z"/><path d="M17.499 6.807a.5.5 0 1 1-.998.069c-.157-2.287.79-3.284 2.512-3.386.269-.016.495-.013.911.004.372.015.495.017.628.008.866-.062 1.2-.905.484-2.27a.5.5 0 0 1 .886-.464c1.022 1.949.363 3.612-1.298 3.731-.186.013-.324.01-.74-.006a7.727 7.727 0 0 0-.812-.005c-1.184.07-1.691.605-1.573 2.319z" fill-rule="nonzero"/></g></symbol><symbol id="icon-insurance" viewBox="0 0 24 24"><path d="M12.5 4.516a7.5 7.5 0 0 1 7 7.484.5.5 0 0 1-.724.447c-1.269-.634-2.368-.947-3.292-.947-.855 0-1.851.268-2.984.81v5.827a2.5 2.5 0 1 1-5 0v-.363a.5.5 0 1 1 1 0v.363a1.5 1.5 0 0 0 3 0v-5.895c-.64-.451-1.762-.742-2.978-.742-.87 0-1.976.314-3.306.951A.5.5 0 0 1 4.5 12a7.5 7.5 0 0 1 7-7.484V2.927a.5.5 0 1 1 1 0v1.59zm2.984 5.984c.89 0 1.879.233 2.967.695a6.501 6.501 0 0 0-12.903.012c1.13-.47 2.12-.707 2.974-.707 1.392 0 2.7.333 3.537.913 1.263-.606 2.403-.913 3.425-.913z" fill-rule="nonzero"/></symbol><symbol id="icon-logo-cnc" viewBox="0 0 247 40"><use xlink:href="#icon-logo-cnc-a" fill-rule="evenodd"/></symbol><symbol id="icon-options" viewBox="0 0 24 24"><path d="M8.936 4.927a.508.508 0 0 1-.43.92 2.443 2.443 0 0 0-1.826-.1 2.445 2.445 0 0 0-1.434 1.286 2.442 2.442 0 0 0 .205 2.434c.246.355.58.64.982.827a2.442 2.442 0 0 0 1.725.132 2.446 2.446 0 0 0 1.535-1.319A2.44 2.44 0 0 0 9.9 7.725a.508.508 0 1 1 1.005-.145 3.455 3.455 0 0 1-.29 1.956A3.461 3.461 0 0 1 8.442 11.4a3.457 3.457 0 0 1-2.44-.186 3.455 3.455 0 0 1-1.387-1.17 3.458 3.458 0 0 1-.29-3.439 3.46 3.46 0 0 1 2.027-1.819 3.458 3.458 0 0 1 2.583.14zm-1.428 3.07l3.72-3.842a.508.508 0 0 1 .73.706l-4.08 4.213a.508.508 0 0 1-.723.005L5.842 7.766a.508.508 0 0 1 .717-.718l.95.949zM7.47 20a3.469 3.469 0 1 1 0-6.938 3.469 3.469 0 0 1 0 6.938zm0-1.015a2.454 2.454 0 1 0 0-4.907 2.454 2.454 0 0 0 0 4.907zm8.46-7.446a3.469 3.469 0 1 1 0-6.937 3.469 3.469 0 0 1 0 6.937zm0-1.015a2.454 2.454 0 1 0 0-4.907 2.454 2.454 0 0 0 0 4.907zm0 9.476a3.469 3.469 0 1 1 0-6.938 3.469 3.469 0 0 1 0 6.938zm0-1.015a2.454 2.454 0 1 0 0-4.907 2.454 2.454 0 0 0 0 4.907z" fill-rule="nonzero"/></symbol><symbol id="icon-personal" viewBox="0 0 40 40"><g fill-rule="evenodd"><path d="M9.198 32.917H7.699a2.089 2.089 0 0 1-2.086-2.086v-7.28c0-1.133.213-2.242.634-3.294l.3-.75h-.274A2.276 2.276 0 0 1 4 17.231v-.734c0-.695.312-1.342.855-1.776a2.268 2.268 0 0 1 1.923-.44l1.7.385.605-1.518a8.248 8.248 0 0 1 7.7-5.218h5.67c1.49 0 2.948.396 4.219 1.144a.7.7 0 0 1-.71 1.204 6.916 6.916 0 0 0-3.509-.952h-5.67a6.86 6.86 0 0 0-6.403 4.34l-.827 2.073a.697.697 0 0 1-.803.421l-2.283-.517a.854.854 0 0 0-.74.17.871.871 0 0 0-.33.684v.734c0 .484.392.878.876.878h1.304a.698.698 0 0 1 .648.957l-.681 1.708a7.457 7.457 0 0 0-.535 2.777v7.279c0 .38.31.69.69.69h1.499c.38 0 .69-.31.69-.69V28.99c0-.385.313-.698.698-.698h9.62a.699.699 0 0 1 0 1.396h-8.922v1.143a2.09 2.09 0 0 1-2.086 2.086"/><path d="M12.408 22.351a.305.305 0 0 0-.184.063.305.305 0 0 0-.123.246v1.009c0 .17.138.309.308.309h2.132c.17 0 .309-.139.309-.31v-.395a.311.311 0 0 0-.224-.297l-2.131-.612a.322.322 0 0 0-.087-.013m2.133 3.023H12.41c-.94 0-1.704-.765-1.704-1.705V22.66c0-.54.247-1.036.678-1.36a1.688 1.688 0 0 1 1.497-.278l2.132.611c.727.21 1.234.884 1.234 1.64v.396c0 .94-.764 1.705-1.705 1.705M28.553 12.275a3.148 3.148 0 0 0-3.144 3.143 3.148 3.148 0 0 0 3.144 3.144 3.147 3.147 0 0 0 3.144-3.144 3.147 3.147 0 0 0-3.144-3.143m0 7.683a4.546 4.546 0 0 1-4.54-4.54 4.545 4.545 0 0 1 4.54-4.54 4.545 4.545 0 0 1 4.54 4.54 4.546 4.546 0 0 1-4.54 4.54M23.125 32.474h11.686V27.67a5.85 5.85 0 0 0-5.843-5.843 5.85 5.85 0 0 0-5.843 5.843v4.804zm12.384 1.397H22.427a.699.699 0 0 1-.698-.698V27.67c0-3.991 3.247-7.24 7.239-7.24s7.24 3.249 7.24 7.24v5.503a.699.699 0 0 1-.699.698z"/></g></symbol><symbol id="icon-promotion" viewBox="0 0 24 24"><g fill-rule="nonzero"><path d="M18.5 9.5a2 2 0 1 1 0 4v4a2 2 0 0 1-3.932.52l-6.135-3.234H6a2.5 2.5 0 0 1-2.5-2.5V10.57a2.5 2.5 0 0 1 2.5-2.5h2.33l6.308-3.303A2 2 0 0 1 18.5 5.5v4zm0 1v2a1 1 0 0 0 0-2zm-1-1v-4a1 1 0 0 0-2 0v12a1 1 0 0 0 2 0v-8zm-3 7.354V5.969L9.071 8.812v5.18l5.429 2.862zM6 9.07a1.5 1.5 0 0 0-1.5 1.5v1.715a1.5 1.5 0 0 0 1.5 1.5h2.071V9.07H6z"/><path d="M8.103 19.343A2.029 2.029 0 0 0 9.935 20.5a.509.509 0 0 0 .46-.728l-2.373-4.986H5.934l2.169 4.557zm.55-5.557l2.644 5.557A1.509 1.509 0 0 1 9.935 21.5 3.029 3.029 0 0 1 7.2 19.772L4.35 13.786h4.302z"/></g></symbol><symbol id="icon-search-active" viewBox="0 0 24 24"><path d="M17.176 15.762l4.188 4.188a1 1 0 1 1-1.414 1.414l-4.188-4.188a8.5 8.5 0 1 1 1.414-1.414zM10.5 17a6.5 6.5 0 1 0 0-13 6.5 6.5 0 0 0 0 13z" fill-rule="nonzero"/></symbol><symbol id="icon-search" viewBox="0 0 24 24"><path d="M17.176 15.762l4.188 4.188a1 1 0 1 1-1.414 1.414l-4.188-4.188a8.5 8.5 0 1 1 1.414-1.414zM10.5 17a6.5 6.5 0 1 0 0-13 6.5 6.5 0 0 0 0 13z" fill-rule="nonzero"/></symbol><symbol id="icon-stepper-active" viewBox="0 0 25 30"><path d="M3.661 3.64c4.882-4.853 12.796-4.853 17.678 0a12.375 12.375 0 0 1 0 17.573l-7.429 7.385a2 2 0 0 1-2.82 0l-7.429-7.385a12.375 12.375 0 0 1 0-17.573z" fill-rule="nonzero" stroke="#516173"/></symbol><symbol id="icon-stepper-inactive" viewBox="0 0 25 30"><rect width="25" height="25" rx="12.5" fill-rule="nonzero" stroke="#767E90"/></symbol><symbol id="icon-tick" viewBox="0 0 16 16"><path d="M5.811 13a.872.872 0 0 1-.616-.254L1.255 8.83a.861.861 0 0 1 0-1.225.874.874 0 0 1 1.232 0l3.324 3.304 7.702-7.655a.874.874 0 0 1 1.232 0c.34.339.34.887 0 1.225l-8.318 8.267a.872.872 0 0 1-.616.254" fill-rule="evenodd"/></symbol><symbol id="icon-times" viewBox="0 0 24 24"><g fill-rule="evenodd"><circle cx="12" cy="12" r="9"/><path d="M12 11.51l3.748-3.748a.7.7 0 1 1 .99.99L12.99 12.5l3.748 3.748a.7.7 0 0 1-.99.99L12 13.49l-3.748 3.748a.7.7 0 0 1-.99-.99L11.01 12.5 7.262 8.752a.7.7 0 1 1 .99-.99L12 11.51z" fill-rule="nonzero"/></g></symbol><symbol id="icon-trim" viewBox="0 0 24 24"><path d="M9.893 19.513a1.049 1.049 0 0 0 0-2.095c-.578 0-1.048.47-1.048 1.048 0 .577.47 1.047 1.048 1.047zm0-3.095a2.05 2.05 0 0 1 2.047 2.048 2.049 2.049 0 0 1-2.047 2.047 2.05 2.05 0 0 1-2.048-2.047 2.05 2.05 0 0 1 2.048-2.048zM6 5.53c0 .844.687 1.53 1.53 1.53.844 0 1.531-.686 1.531-1.53S8.374 4 7.53 4C6.687 4 6 4.686 6 5.53zm10.2 10.412a2.18 2.18 0 0 1 2.178 2.178c0 .583-.228 1.131-.641 1.543a2.164 2.164 0 0 1-1.536.635h-.008l-3.782-.015a.5.5 0 0 1 .002-1h.002l3.782.015h.004c.314 0 .609-.122.83-.344a1.179 1.179 0 0 0-.831-2.012h-4.517a.5.5 0 0 1-.49-.396L9.951 10.67a1.17 1.17 0 0 0-.504-.756 1.175 1.175 0 0 0-1.636.327c-.175.262-.238.577-.175.886l1.117 5.102a.5.5 0 1 1-.977.215l-1.119-5.11a2.17 2.17 0 0 1 .322-1.648c.195-.293.457-.52.755-.686l-.243-.944A2.53 2.53 0 0 1 5 5.53 2.532 2.532 0 0 1 7.53 3a2.532 2.532 0 0 1 2.531 2.53 2.531 2.531 0 0 1-1.583 2.343l.218.852a2.165 2.165 0 0 1 2.235 1.743l1.157 5.474H16.2z" fill-rule="evenodd"/></symbol><symbol id="icon-wallet" viewBox="0 0 24 24"><path d="M19.5 15.5H17a2.5 2.5 0 1 1 0-5h2.5V10A1.5 1.5 0 0 0 18 8.5H5.5a1.99 1.99 0 0 1-1-.268V17A1.5 1.5 0 0 0 6 18.5h12a1.5 1.5 0 0 0 1.5-1.5v-1.5zm-5.5-8h2.5V7A1.5 1.5 0 0 0 15 5.5H5.5a1 1 0 1 0 0 2H14zm3.5 0h.5a2.5 2.5 0 0 1 2.5 2.5v7a2.5 2.5 0 0 1-2.5 2.5H6A2.5 2.5 0 0 1 3.5 17V6.557 6.5a2 2 0 0 1 2-2H15A2.5 2.5 0 0 1 17.5 7v.5zm2 4H17a1.5 1.5 0 0 0 0 3h2.5v-3zm-2.5 2v-1h1.009v1H17z" fill-rule="nonzero"/></symbol></svg>