<svg xmlns="http://www.w3.org/2000/svg" xmlns:xlink="http://www.w3.org/1999/xlink" width="26" height="31" viewBox="0 0 26 31"><defs><path id="agtga" d="M105.806 438.505c1.485 0 3.132.388 4.945 1.158-.66-5.35-5.222-9.492-10.751-9.492-5.536 0-10.101 4.152-10.753 9.512 1.884-.783 3.533-1.178 4.956-1.178 2.32 0 4.502.554 5.896 1.521 2.104-1.01 4.004-1.521 5.707-1.521zm0 1.666c-1.425 0-3.085.446-4.973 1.351v9.71a4.167 4.167 0 1 1-8.333 0v-.603a.833.833 0 1 1 1.667 0v.604a2.5 2.5 0 1 0 5 0v-9.825c-1.067-.752-2.938-1.237-4.964-1.237-1.45 0-3.292.523-5.51 1.585a.833.833 0 0 1-1.193-.751c0-6.624 5.152-12.044 11.667-12.473v-2.649a.833.833 0 0 1 1.666 0v2.649c6.515.429 11.667 5.849 11.667 12.473a.833.833 0 0 1-1.206.745c-2.115-1.058-3.947-1.579-5.488-1.579z"/></defs><g><g transform="translate(-87 -425)"><use fill="#314959" xlink:href="#agtga"/></g></g></svg>