<svg xmlns="http://www.w3.org/2000/svg" xmlns:xlink="http://www.w3.org/1999/xlink" width="40" height="40" viewBox="0 0 40 40"><defs><path id="ln5ja" d="M92.073 743.293l5.893-5.266a4.167 4.167 0 0 1 5.58.023l5.773 5.25a4.167 4.167 0 0 1 1.364 3.082v17.693a4.167 4.167 0 0 1-4.166 4.166H94.85a4.167 4.167 0 0 1-4.167-4.166v-17.676c0-1.186.506-2.316 1.39-3.106zm1.111 1.242a2.5 2.5 0 0 0-.834 1.864v17.675a2.5 2.5 0 0 0 2.5 2.5h11.667a2.5 2.5 0 0 0 2.5-2.5v-17.692a2.5 2.5 0 0 0-.819-1.85l-5.774-5.249a2.5 2.5 0 0 0-3.347-.014z"/><path id="ln5jb" d="M106.667 744.667a1.667 1.667 0 1 1 3.333 0 1.667 1.667 0 0 1-3.333 0z"/><path id="ln5jc" d="M100.232 749.676c.473 0 .84.31.84.714a.644.644 0 0 1-.087.31l-5.495 9.297c-.14.218-.368.373-.735.373-.473 0-.823-.31-.823-.714 0-.109.017-.202.087-.326l5.496-9.266c.087-.186.332-.388.717-.388zm1.04 5.202c2 0 2.695 1.166 2.695 2.678 0 1.478-.696 2.677-2.695 2.677-1.983 0-2.66-1.199-2.66-2.677 0-1.512.677-2.678 2.66-2.678zm.01 3.57c.689 0 .9-.43.9-.892 0-.475-.211-.893-.9-.893-.703 0-.886.418-.886.893 0 .463.183.892.886.892zm-6.322-9.881c2 0 2.695 1.166 2.695 2.677 0 1.479-.695 2.678-2.695 2.678-1.982 0-2.66-1.2-2.66-2.678 0-1.511.678-2.677 2.66-2.677zm.01 3.57c.69 0 .9-.43.9-.893 0-.474-.21-.892-.9-.892-.702 0-.885.418-.885.892 0 .464.183.893.886.893z"/><path id="ln5jd" d="M109.158 744.345a.833.833 0 1 1-1.663.115c-.263-3.812 1.315-5.473 4.187-5.643.447-.026.824-.022 1.518.006.62.025.825.029 1.047.013 1.443-.103 1.999-1.508.807-3.782a.833.833 0 0 1 1.476-.774c1.702 3.248.605 6.02-2.164 6.219-.31.022-.54.017-1.233-.01-.64-.026-.977-.03-1.353-.008-1.974.117-2.82 1.007-2.622 3.864z"/></defs><g><g transform="translate(-80 -733)"><g transform="rotate(45 99 755)"><use fill="#314959" xlink:href="#ln5ja"/></g><g><use fill="#314959" xlink:href="#ln5jb"/></g><g transform="rotate(45 97.5 754.5)"><use fill="#314959" xlink:href="#ln5jc"/></g><g><use fill="#314959" xlink:href="#ln5jd"/></g></g></g></svg>