<svg xmlns="http://www.w3.org/2000/svg" xmlns:xlink="http://www.w3.org/1999/xlink" width="32" height="32" viewBox="0 0 32 32"><defs><path id="1bnha" d="M116.038 552.153c1.273 1.273.375 3.955-.594 4.923a1.262 1.262 0 0 1-.903.369c-.386 0-.772-.166-1.058-.455l-2.757-2.752c-.148-.153-.296-.183-.343-.168l-1.335 1.356c.015-.011.042.136.197.291l2.756 2.76c.564.565.603 1.443.084 1.96-.472.471-1.34.908-2.209 1.109-.349.08-.681.12-.99.12-.715 0-1.311-.212-1.727-.628l-1.612-1.622a4.998 4.998 0 0 1-1.098-5.408c.118-.282.022-.65-.228-.898l-10.674-10.656c-.248-.248-.614-.349-.891-.233a4.982 4.982 0 0 1-5.409-1.097l-1.618-1.61c-1.274-1.274-.374-3.956.596-4.925.233-.237.554-.368.9-.37h.003c.383 0 .769.167 1.056.453l2.756 2.755c.153.15.316.174.34.17l1.339-1.356h-.002c-.022 0-.049-.148-.196-.295l-2.755-2.76c-.57-.573-.608-1.43-.087-1.956.973-.972 3.657-1.876 4.93-.602l1.611 1.62a4.998 4.998 0 0 1 1.098 5.409l-.002.001c-.112.277-.016.644.232.893l10.674 10.66c.248.25.614.343.891.233a4.988 4.988 0 0 1 5.409 1.098zm-1.548 3.455c.423-.684.709-1.94.38-2.268l-1.618-1.61a3.315 3.315 0 0 0-3.594-.732c-.902.364-1.989.121-2.712-.603l-10.68-10.658c-.723-.723-.965-1.814-.599-2.711a3.314 3.314 0 0 0-.732-3.591l-1.61-1.622c-.327-.33-1.588-.04-2.273.385l2.56 2.562c.79.786.88 1.984.2 2.665l-1.388 1.387a1.61 1.61 0 0 1-1.15.462h-.002c-.544 0-1.097-.242-1.517-.661l-2.56-2.557c-.423.685-.71 1.94-.38 2.27l1.618 1.61a3.317 3.317 0 0 0 3.595.73c.278-.113.576-.168.873-.168.665 0 1.339.272 1.84.772l10.678 10.654c.729.728.969 1.82.596 2.718a3.322 3.322 0 0 0 .734 3.59l1.61 1.621c.133.131.542.202 1.151.06.435-.101.84-.28 1.119-.449l-2.558-2.561c-.42-.42-.662-.97-.66-1.513 0-.445.164-.852.463-1.15l1.386-1.386a1.606 1.606 0 0 1 1.152-.463h.002c.542 0 1.095.241 1.515.662zm-14.017-4.615c.277.277.43.645.43 1.035 0 .395-.153.762-.43 1.039l-1.254 1.254a1.51 1.51 0 0 1-1.716.269 1.482 1.482 0 0 1-.269 1.716l-3.857 3.854a4.822 4.822 0 0 1-3.437 1.424c-1.3 0-2.518-.504-3.435-1.42a4.872 4.872 0 0 1 0-6.88l3.854-3.856a1.453 1.453 0 0 1 1.038-.43h.003c.238 0 .47.055.678.164a1.48 1.48 0 0 1 .262-1.72l1.254-1.254a1.473 1.473 0 0 1 2.073-.002l.002.002zm-1.336 1.043l-4.504-4.511-.97.969a1.443 1.443 0 0 1-.131 1.886l-.239.24a1.444 1.444 0 0 1-1.881.133l-3.72 3.727a3.202 3.202 0 0 0 0 4.513c1.2 1.201 3.297 1.201 4.499-.003l3.723-3.726a1.444 1.444 0 0 1 .134-1.882l.24-.239c.269-.27.63-.422 1.014-.422h.002c.315 0 .616.1.862.288zm3.71-9.771a.84.84 0 0 1 0-1.187l4.835-4.839-.1-1.67c-.019-.317.201-.728.475-.888l4.78-2.784c.333-.193.893-.118 1.165.151l1.935 1.938c.27.27.343.835.152 1.164l-2.78 4.781c-.156.269-.537.457-.87.479l-.021-.002-1.669-.1-4.838 4.84a.838.838 0 0 1-1.186 0zm1.78-.606l.692.693 4.473-4.47c.166-.17.482-.348.724-.28l1.562.096 2.282-3.92-1.155-1.155-3.921 2.281.094 1.548c.015.24-.11.565-.279.737zm-10.516 9.705a.839.839 0 0 1 1.187 1.186l-5.122 5.118a.843.843 0 0 1-1.187 0 .839.839 0 0 1 0-1.186z"/></defs><g><g transform="translate(-85 -530)"><use fill="#314959" xlink:href="#1bnha"/></g></g></svg>