<svg xmlns="http://www.w3.org/2000/svg" xmlns:xlink="http://www.w3.org/1999/xlink" width="25" height="29" viewBox="0 0 25 29"><defs><path id="ha4ga" d="M94.18 654.292c-.414 0-.75-.373-.75-.834 0-.46.336-.833.75-.833h6.01c.415 0 .75.373.75.833 0 .46-.335.834-.75.834zm0-3.75c-.414 0-.75-.373-.75-.834 0-.46.336-.833.75-.833h6.01c.415 0 .75.373.75.833 0 .46-.335.834-.75.834zm0-3.75c-.414 0-.75-.373-.75-.834 0-.46.336-.833.75-.833h6.01c.415 0 .75.373.75.833 0 .46-.335.834-.75.834zM107.708 656c-.857 0-1.665-.21-2.375-.582v4.839l2.026-1.068a.75.75 0 0 1 .7 0l2.024 1.068v-4.84a5.103 5.103 0 0 1-2.375.583zm-5.125-5.125a5.125 5.125 0 1 1 9 3.354v7.271a.75.75 0 0 1-1.1.663l-2.775-1.463-2.775 1.463a.75.75 0 0 1-1.1-.663v-7.27a5.105 5.105 0 0 1-1.25-3.355zm8.75 0a3.625 3.625 0 1 0-7.25 0 3.625 3.625 0 0 0 7.25 0zM93.43 640.601v-3.267l-2.735 3.267zm-3.097 16.702h11.99a.75.75 0 1 1 0 1.5h-12.74a.75.75 0 0 1-.75-.75v-17.292a.75.75 0 0 1 .175-.482l4.517-5.395a.75.75 0 0 1 .672-.384h14.136a.75.75 0 0 1 .75.75v9.065a.75.75 0 1 1-1.5 0V636H94.93v5.35a.75.75 0 0 1-.75.75h-3.847z"/></defs><g><g transform="translate(-88 -634)"><use fill="#314959" xlink:href="#ha4ga"/></g></g></svg>